<?xml version="1.0" encoding="UTF-8"?>
<svg enable-background="new 0 0 364.14 364.14" version="1.1" viewBox="0 0 364.14 364.14" xml:space="preserve" xmlns="http://www.w3.org/2000/svg" xmlns:cc="http://creativecommons.org/ns#" xmlns:dc="http://purl.org/dc/elements/1.1/" xmlns:rdf="http://www.w3.org/1999/02/22-rdf-syntax-ns#"><metadata><rdf:RDF><cc:Work rdf:about=""><dc:format>image/svg+xml</dc:format><dc:type rdf:resource="http://purl.org/dc/dcmitype/StillImage"/></cc:Work></rdf:RDF></metadata>
	<path d="m354.07 98.456c-2.163-6.716-6.812-12.185-13.086-15.399l-156.33-80.14c-6.275-3.214-13.43-3.793-20.144-1.631-6.716 2.164-12.185 6.812-15.4 13.087l-0.098 0.192-13.475-4.539c-13.805-4.649-28.82 2.795-33.468 16.597l-1.41 4.196-20.983-3.158c-6.978-1.048-13.944 0.679-19.62 4.867-5.678 4.189-9.382 10.338-10.431 17.313l-0.047 0.314h-14.38c-14.563 0-26.411 11.848-26.411 26.411v261.16c0 14.563 11.848 26.411 26.411 26.411h175.67c10.811 0 20.125-6.53 24.207-15.853 0.315-0.721 117.37-229.69 117.37-229.69 3.214-6.275 3.793-13.43 1.629-20.144zm-89.803-29.478c2.921 3.955 4.127 8.811 3.396 13.673l-30.39 201.9v-207.99c0-7.049-2.781-13.456-7.297-18.197l22.218 3.343c4.864 0.732 9.151 3.312 12.073 7.266zm11.307 14.864c1.05-6.976-0.681-13.943-4.872-19.617-0.076-0.103-0.157-0.2-0.234-0.302l28.985 9.765c4.66 1.569 8.429 4.859 10.613 9.264s2.522 9.397 0.952 14.059l-67.652 200.81 32.208-213.98zm-108.61-74.942c4.682-1.508 9.668-1.104 14.042 1.136l87.092 44.646-111.37-37.519c2.284-3.932 5.875-6.856 10.24-8.263zm-57.312 20.273c3.238-9.619 13.708-14.808 23.332-11.566l96.973 32.668-121.26-18.247 0.959-2.855zm-44.846 9.793c3.957-2.919 8.816-4.125 13.679-3.393l96.908 14.583h-117.68c0.897-4.497 3.379-8.449 7.094-11.19zm146.06 317.17h-175.67c-10.152 0-18.411-8.259-18.411-18.411v-261.16c0-10.152 8.259-18.411 18.411-18.411h175.67c10.152 0 18.411 8.259 18.411 18.411v261.16c0 1.5-0.194 2.954-0.537 4.349-0.049 0.2-0.248 0.93-0.269 0.999-2.299 7.55-9.314 13.063-17.605 13.063zm134.46-241.19l-93.071 181.56 66.351-196.95c2.177-6.468 1.787-13.378-1.077-19.543l19.812 10.156c4.373 2.24 7.612 6.052 9.12 10.732 1.509 4.682 1.105 9.669-1.135 14.043z" fill="#f00"/>
	<path d="m147.3 187.78c0.401-1.778 0.603-3.597 0.603-5.442 0-13.716-11.158-24.874-24.874-24.874s-24.874 11.158-24.874 24.874c0 1.845 0.202 3.664 0.603 5.442-10.167 3.2-17.358 12.676-17.358 23.712 0 13.716 11.158 24.874 24.874 24.874 4.596 0 8.963-1.246 12.755-3.526v15.986h-8.242c-2.209 0-4 1.791-4 4s1.791 4 4 4h24.483c2.209 0 4-1.791 4-4s-1.791-4-4-4h-8.242v-15.986c3.792 2.281 8.159 3.526 12.755 3.526 13.716 0 24.874-11.158 24.874-24.874 1e-3 -11.036-7.192-20.512-17.357-23.712zm-7.516 40.586c-5.378 0-10.314-2.495-13.542-6.846l-3.212-4.329-3.212 4.329c-3.229 4.351-8.165 6.846-13.542 6.846-9.304 0-16.874-7.57-16.874-16.874 0-8.602 6.44-15.807 14.98-16.759l5.418-0.604-2.203-4.987c-0.957-2.165-1.441-4.455-1.441-6.804 0-9.304 7.57-16.874 16.874-16.874s16.874 7.57 16.874 16.874c0 2.35-0.485 4.639-1.441 6.803l-2.204 4.988 5.419 0.604c8.541 0.952 14.981 8.157 14.981 16.759-1e-3 9.304-7.571 16.874-16.875 16.874z" fill="#f00"/>
	<path d="m68.248 84.813c0.08-0.644 0.12-1.294 0.12-1.95 0-8.714-7.09-15.804-15.804-15.804s-15.804 7.09-15.804 15.805c0 0.656 0.04 1.306 0.12 1.95-5.691 2.422-9.595 8.056-9.595 14.537 0 8.714 7.089 15.804 15.804 15.804 1.887 0 3.738-0.356 5.475-1.004v4.574h-2.923c-2.209 0-4 1.791-4 4s1.791 4 4 4h13.845c2.209 0 4-1.791 4-4s-1.791-4-4-4h-2.922v-4.574c1.737 0.648 3.587 1.004 5.474 1.004 8.714 0 15.804-7.089 15.804-15.804 1e-3 -6.482-3.903-12.116-9.594-14.538zm-6.209 22.341c-2.485 0-4.768-1.155-6.262-3.169l-3.212-4.329-3.212 4.329c-1.494 2.014-3.777 3.169-6.263 3.169-4.303 0-7.804-3.5-7.804-7.804 0-3.978 2.978-7.31 6.926-7.75l5.418-0.604-2.202-4.987c-0.442-1.002-0.667-2.061-0.667-3.146 0-4.303 3.5-7.804 7.804-7.804s7.804 3.501 7.804 7.804c0 1.085-0.225 2.143-0.667 3.146l-2.202 4.987 5.418 0.604c3.948 0.44 6.926 3.771 6.926 7.75-1e-3 4.303-3.502 7.804-7.805 7.804z" fill="#f00"/>
	<path d="m202.97 299.14c-1.888 0-3.737 0.356-5.475 1.004v-4.573h2.922c2.209 0 4-1.791 4-4s-1.791-4-4-4h-13.845c-2.209 0-4 1.791-4 4s1.791 4 4 4h2.923v4.573c-1.737-0.648-3.587-1.004-5.475-1.004-8.714 0-15.804 7.089-15.804 15.804 0 6.48 3.903 12.115 9.595 14.537-0.08 0.644-0.12 1.294-0.12 1.95 0 8.714 7.089 15.804 15.804 15.804 8.714 0 15.804-7.089 15.804-15.804 0-0.656-0.04-1.306-0.12-1.95 5.691-2.422 9.595-8.057 9.595-14.537 0-8.715-7.09-15.804-15.804-15.804zm0.878 23.554l-5.418 0.604 2.202 4.987c0.442 1.001 0.667 2.06 0.667 3.145 0 4.303-3.501 7.804-7.804 7.804-4.304 0-7.805-3.501-7.805-7.804 0-1.085 0.225-2.144 0.667-3.145l2.203-4.987-5.418-0.604c-3.949-0.44-6.926-3.772-6.926-7.75 0-4.303 3.501-7.804 7.804-7.804 2.485 0 4.768 1.155 6.263 3.169l3.213 4.328 3.212-4.329c1.493-2.014 3.776-3.168 6.262-3.168 4.303 0 7.804 3.5 7.804 7.804 0 3.978-2.978 7.31-6.926 7.75z" fill="#f00"/>
</svg>
