<?xml version="1.0" encoding="UTF-8"?>
<svg enable-background="new 0 0 278.25 278.25" version="1.1" viewBox="0 0 278.25 278.25" xml:space="preserve" xmlns="http://www.w3.org/2000/svg" xmlns:cc="http://creativecommons.org/ns#" xmlns:dc="http://purl.org/dc/elements/1.1/" xmlns:rdf="http://www.w3.org/1999/02/22-rdf-syntax-ns#"><metadata><rdf:RDF><cc:Work rdf:about=""><dc:format>image/svg+xml</dc:format><dc:type rdf:resource="http://purl.org/dc/dcmitype/StillImage"/></cc:Work></rdf:RDF></metadata>
	<path d="m251.32 0h-134.35c-14.789 0-26.82 12.036-26.82 26.83v63.42h-63.226c-14.791 0-26.824 12.033-26.824 26.824v134.35c0 14.791 12.033 26.824 26.824 26.824h134.35c14.791 0 26.824-12.033 26.824-26.824v-63.426h63.221c14.794 0 26.829-12.032 26.829-26.82v-134.35c0-14.794-12.035-26.83-26.829-26.83zm-71.221 251.43c0 10.38-8.444 18.824-18.824 18.824h-134.35c-10.38 0-18.824-8.444-18.824-18.824v-134.35c0-10.38 8.444-18.824 18.824-18.824h134.35c10.38 0 18.824 8.444 18.824 18.824v134.35zm-53.527-161.18c1.539-4.216 5.581-7.24 10.326-7.24 4.74 0 8.777 3.017 10.321 7.24h-20.647zm143.58 70.93c0 10.377-8.446 18.82-18.829 18.82h-63.221v-62.926c0-14.791-12.033-26.824-26.824-26.824h-5.752c-1.747-8.681-9.432-15.24-18.624-15.24s-16.877 6.559-18.624 15.24h-20.126v-63.42c0-10.383 8.442-18.83 18.82-18.83h134.35c10.383 0 18.829 8.447 18.829 18.83v134.35z" fill="#f00"/>
	<path d="m46.853 115.75c-10.477 0-19 8.523-19 19 0 10.476 8.523 18.999 19 18.999s18.999-8.523 18.999-18.999c0-10.477-8.522-19-18.999-19zm0 29.998c-6.065 0-11-4.934-11-10.999s4.935-11 11-11c6.064 0 10.999 4.935 10.999 11s-4.935 10.999-10.999 10.999z" fill="#f00"/>
	<path d="m141.35 214.75c-10.477 0-18.999 8.523-18.999 19 0 10.476 8.522 18.999 18.999 18.999s18.999-8.523 18.999-18.999c0-10.477-8.522-19-18.999-19zm0 29.999c-6.064 0-10.999-4.934-10.999-10.999s4.935-11 10.999-11 10.999 4.935 10.999 11-4.934 10.999-10.999 10.999z" fill="#f00"/>
	<path d="m94.1 165.25c-10.477 0-18.999 8.523-18.999 19 0 10.476 8.522 18.999 18.999 18.999s18.999-8.523 18.999-18.999c0-10.477-8.522-19-18.999-19zm0 29.999c-6.064 0-10.999-4.934-10.999-10.999s4.935-11 10.999-11 10.999 4.935 10.999 11-4.934 10.999-10.999 10.999z" fill="#f00"/>
	<path d="m136.9 25.508c-10.477 0-18.999 8.523-18.999 18.999 0 10.477 8.522 19 18.999 19s18.999-8.523 18.999-19c0-10.476-8.522-18.999-18.999-18.999zm0 29.998c-6.064 0-10.999-4.935-10.999-11s4.935-10.999 10.999-10.999 10.999 4.934 10.999 10.999-4.935 11-10.999 11z" fill="#f00"/>
	<path d="m231.39 25.508c-10.477 0-18.999 8.523-18.999 18.999 0 10.477 8.522 19 18.999 19s19-8.523 19-19c0-10.476-8.523-18.999-19-18.999zm0 29.998c-6.064 0-10.999-4.935-10.999-11s4.935-10.999 10.999-10.999c6.065 0 11 4.934 11 10.999s-4.935 11-11 11z" fill="#f00"/>
	<path d="m231.39 124.5c-10.477 0-18.999 8.523-18.999 18.999 0 10.477 8.522 19 18.999 19s19-8.523 19-19c0-10.476-8.523-18.999-19-18.999zm0 29.998c-6.064 0-10.999-4.935-10.999-11s4.935-10.999 10.999-10.999c6.065 0 11 4.934 11 10.999s-4.935 11-11 11z" fill="#f00"/>
	<path d="m231.39 75.005c-10.477 0-18.999 8.523-18.999 18.999 0 10.477 8.522 19 18.999 19s19-8.523 19-19c0-10.476-8.523-18.999-19-18.999zm0 29.999c-6.064 0-10.999-4.935-10.999-11s4.935-10.999 10.999-10.999c6.065 0 11 4.934 11 10.999s-4.935 11-11 11z" fill="#f00"/>
</svg>
