<?xml version="1.0" encoding="UTF-8"?>
<svg version="1.1" viewBox="0 0 60.224 94.865" xmlns="http://www.w3.org/2000/svg">
<path d="m11.472 94.11c-1.1084-1.2096-1.1815-2.5129 0.43753-3.2013 1.3359-1.15 3.2953-1.557 3.6464-3.3495 0.80146-3.0238 1.5936-6.0469 2.5544-9.0257 0.80725-3.0339 1.5486-6.0972 2.2748-9.1447 0.62932-2.0017-2.4739-0.23546-2.0826-2.52-0.47188-1.8913-0.06021-3.9923 0.74078-5.7402 0.68951-1.5967 0.01656-3.0674-0.25198-4.4216-0.71903-2.9172-1.6754-5.7927-2.5963-8.6319-0.54387-2.4894-0.61966-5.1211-1.6368-7.4788 0.0055-1.0839-2.4784-2.1802-0.93553-0.75509 0.98438 0.41984-1.3437 0.62928-1.7129 1.0832-1.4538-0.21342-2.6985 2.2401-4.0913 1.6326-0.60244-1.9241-1.8477-0.5401-2.434 0.0423-0.21027-2.4713-2.0411-0.45472-2.4315 0.54856-1.8102-1.1957-2.2865-3.315-2.3448-5.3474-0.35567-1.9637 0.75045-3.7369 0.96371-5.6586 0.90641-2.4546 1.1676-5.0846 1.6462-7.664 0.24265-2.6915 0.13174-5.4161 0.74262-8.0693 0.32108-2.9827 0.5555-5.9945 1.2224-8.9187 0.77989-0.99351 0.98309-2.8018 1.7817-3.5716 1.283-2.0218 3.7489-3.0812 6.0824-3.2262 1.8003-0.43124 4.0579 0.01787 5.2097 1.5989 0.96438 1.1803 2.4581 2.312 2.6237 3.8512 0.8639 1.4638 1.2064 3.0742 1.1398 4.8519 0.0821 0.62184-0.12739 1.5473 0.13713 1.9792 3.9112-0.01056 7.8828-0.4017 11.738 0.40051 2.0045 0.54771 4.0908 0.78179 6.1319 1.1685 1.9801 0.19422 6.6562 1.2644 9.3822 2.0116 1.9482 0.44029 3.399 1.5325 4.9213 2.798 1.4652 0.7374 2.0912 1.8882 3.058 3.2627 1.6354 2.2404 2.4926 5.0883 2.2659 7.8551-0.42863 2.2211-1.3344 4.5414-3.2186 5.9196-0.95003 0.91942-6.3773 6.6224-7.4815 7.3548-1.4013 1.1183-5.6128 4.1075-7.218 5.1546-1.4778 0.75558-3.007 1.8-3.9276 3.2945-0.02495 1.8523 2.5083 2.8541 3.1836 4.5338 0.30424 0.42971 0.79587 2.7907 1.4387 3.8267 0.83522 3.3366 1.3424 6.7503 1.9846 10.124 0.46302 1.8091 0.45319 4.4244 2.9127 4.5563 1.9338 0.51564 2.7697 1.9765 3.8783 3.359 0.86779 1.2194 2.4476 2.1437 3.136 3.1064-1.2668 1.6287-3.1221-1.0676-4.0562-2.0808-1.1716-0.50538-0.81977 2.5744-0.74476 3.5346 0.0559 1.8505 0.93642 3.4767 1.0339 5.308-0.18642 1.6884-1.8805 2.5085-2.6759 3.6138-0.7008 0.99673-1.6107 1.1296-2.5809 1.8476-2.369 1.0311-4.9031-0.042-3.4249-1.9508 1.1414-1.0497 1.5089-2.7255 1.6159-4.2076-0.56845-1.3574-1.3381-2.8688-1.907-4.3253-0.52797-2.1251-2.1601-3.7716-2.2337-6.0303-0.61966-2.8086-1.5648-5.5627-3.0606-8.0278-1.0268-1.774-1.8708-3.6357-2.8918-5.3954-0.62083-0.81409-0.56256-1.6891-1.3357-2.6278-0.89814 1.2221-0.74442 2.6444-1.3007 4.487-0.46978 1.7006-3.5124 6.9805-4.3043 8.4476-0.82491 1.1346-1.4698 2.5401-1.7874 3.9371-0.94288 1.7861 0.65355 3.7149 1.8971 4.9 0.81642 1.4932-0.72756 3.2352-0.70969 4.8813-0.55244 1.104-0.01456 3.6582-1.0705 3.909-1.8747-0.92161-0.10856-3.1328-0.15093-4.6497 0.68193-2.2846-1.7913-0.3692-2.7186 0.34778-1.3308 1.465-2.6932 3.0976-2.9204 5.1379-1.3226 1.5048-3.8573 1.2856-5.7614 1.5302-0.57357-0.0435-1.2743 0.17149-1.7819-0.17513zm11.125-36.687c0.32424-2.7448-0.08473-5.6047 0.73283-8.2702 0.43648-0.98084 0.81212-1.0983 1.6122-2.233 0.90418-1.2841 2.0054-2.7914 3.0988-4.0774 0.8189-1.488 1.4942-2.5252 2.65-3.7353 0.92028-1.6477 2.3618-3.2065 3.2937-4.7341 1.1346-1.4025 1.1897-1.9155 2.2601-3.3206 0.66313-1.3561 1.8271-2.9101 2.234-4.6388-1.57-0.68655-3.7264-0.29879-5.4572-0.12634 0.32234 2.3312 0.27505 4.7693-0.30824 7.0518-0.42415 1.1382-0.98206 1.7142-1.4619 2.2695-1.5073 0.58962-3.4983-0.24054-4.9091-0.97486-1.4396-1.2266-2.8447 1.7628-4.7341 1.3798-1.0788 0.17117-2.5449-1.3795-1.7012 0.62364 0.57307 2.5029 1.9632 4.7791 2.0402 7.3982 0.29485 2.1529 0.0068 4.5118 0.3532 6.5611-0.21673 2.1103-0.0092 4.2855 0.02026 6.4166 0.0082 0.0977 0.06144 0.79723 0.27655 0.41001z" fill="none" stroke="#f00" stroke-width="1.0667"/>
</svg>
